<svg id="visual" viewBox="0 0 1200 1500" width="1200" height="1500" xmlns="http://www.w3.org/2000/svg" xmlns:xlink="http://www.w3.org/1999/xlink" version="1.1"><path d="M0 556L40 543.5C80 531 160 506 240 523.5C320 541 400 601 480 598.5C560 596 640 531 720 523.5C800 516 880 566 960 591C1040 616 1120 616 1160 616L1200 616L1200 0L1160 0C1120 0 1040 0 960 0C880 0 800 0 720 0C640 0 560 0 480 0C400 0 320 0 240 0C160 0 80 0 40 0L0 0Z" fill="#b072b9"></path><path d="M0 1081L40 1096C80 1111 160 1141 240 1158.5C320 1176 400 1181 480 1178.5C560 1176 640 1166 720 1153.5C800 1141 880 1126 960 1126C1040 1126 1120 1141 1160 1148.5L1200 1156L1200 614L1160 614C1120 614 1040 614 960 589C880 564 800 514 720 521.5C640 529 560 594 480 596.5C400 599 320 539 240 521.5C160 504 80 529 40 541.5L0 554Z" fill="#913f9f"></path><path d="M0 1501L40 1501C80 1501 160 1501 240 1501C320 1501 400 1501 480 1501C560 1501 640 1501 720 1501C800 1501 880 1501 960 1501C1040 1501 1120 1501 1160 1501L1200 1501L1200 1154L1160 1146.5C1120 1139 1040 1124 960 1124C880 1124 800 1139 720 1151.5C640 1164 560 1174 480 1176.5C400 1179 320 1174 240 1156.5C160 1139 80 1109 40 1094L0 1079Z" fill="#6a2f75"></path></svg>