<svg id="visual" viewBox="0 0 1300 1600" width="1300" height="1600" xmlns="http://www.w3.org/2000/svg" xmlns:xlink="http://www.w3.org/1999/xlink" version="1.1"><path d="M0 593L43.3 579.7C86.7 566.3 173.3 539.7 260 558.3C346.7 577 433.3 641 520 638.3C606.7 635.7 693.3 566.3 780 558.3C866.7 550.3 953.3 603.7 1040 630.3C1126.7 657 1213.3 657 1256.7 657L1300 657L1300 0L1256.7 0C1213.3 0 1126.7 0 1040 0C953.3 0 866.7 0 780 0C693.3 0 606.7 0 520 0C433.3 0 346.7 0 260 0C173.3 0 86.7 0 43.3 0L0 0Z" fill="#94b9e6"></path><path d="M0 1153L43.3 1169C86.7 1185 173.3 1217 260 1235.7C346.7 1254.3 433.3 1259.7 520 1257C606.7 1254.3 693.3 1243.7 780 1230.3C866.7 1217 953.3 1201 1040 1201C1126.7 1201 1213.3 1217 1256.7 1225L1300 1233L1300 655L1256.7 655C1213.3 655 1126.7 655 1040 628.3C953.3 601.7 866.7 548.3 780 556.3C693.3 564.3 606.7 633.7 520 636.3C433.3 639 346.7 575 260 556.3C173.3 537.7 86.7 564.3 43.3 577.7L0 591Z" fill="#649adb"></path><path d="M0 1601L43.3 1601C86.7 1601 173.3 1601 260 1601C346.7 1601 433.3 1601 520 1601C606.7 1601 693.3 1601 780 1601C866.7 1601 953.3 1601 1040 1601C1126.7 1601 1213.3 1601 1256.7 1601L1300 1601L1300 1231L1256.7 1223C1213.3 1215 1126.7 1199 1040 1199C953.3 1199 866.7 1215 780 1228.3C693.3 1241.7 606.7 1252.3 520 1255C433.3 1257.7 346.7 1252.3 260 1233.7C173.3 1215 86.7 1183 43.3 1167L0 1151Z" fill="#4770a4"></path></svg>